<svg width="66" height="45" viewBox="0 0 66 45" fill="none" xmlns="http://www.w3.org/2000/svg">
<path d="M63.4275 3.86293C61.0451 1.11919 56.6465 0 48.2462 0H17.7531C9.16059 0 4.68749 1.19139 2.31405 4.11251C0 6.96062 0 11.1571 0 16.9651V28.0351C0 39.2871 2.7456 45 17.7531 45H48.2464C55.5311 45 59.5678 44.0124 62.1792 41.5911C64.8573 39.108 66 35.0539 66 28.0351V16.9651C66 10.84 65.8209 6.61883 63.4275 3.86293ZM42.3722 24.0284L28.5254 31.0396C28.2159 31.1963 27.8773 31.2741 27.5392 31.2741C27.1564 31.2741 26.7745 31.1743 26.4362 30.9758C25.7992 30.6019 25.4102 29.933 25.4102 29.2114V15.2341C25.4102 14.5138 25.7981 13.8455 26.4339 13.4714C27.0698 13.0972 27.8607 13.0716 28.5205 13.4037L42.3673 20.3697C43.0718 20.7241 43.5142 21.4287 43.5153 22.1974C43.5161 22.9668 43.0756 23.6724 42.3722 24.0284Z" fill="#DBFF00"/>
</svg>
